<?xml version="1.0" standalone="no"?>
<!DOCTYPE svg PUBLIC "-//W3C//DTD SVG 20010904//EN"
 "http://www.w3.org/TR/2001/REC-SVG-20010904/DTD/svg10.dtd">
<svg version="1.0" xmlns="http://www.w3.org/2000/svg"
 width="148.000000pt" height="148.000000pt" viewBox="0 0 148.000000 148.000000"
 preserveAspectRatio="xMidYMid meet">
<metadata>
Created by potrace 1.11, written by Peter Selinger 2001-2013
</metadata>
<g transform="translate(0.000000,148.000000) scale(0.100000,-0.100000)"
fill="#000000" stroke="none">
<path d="M599 1466 c-148 -31 -270 -98 -379 -206 -79 -80 -126 -150 -167 -250
-142 -352 18 -761 362 -931 116 -57 189 -73 325 -73 136 0 209 16 325 73 192
95 337 272 392 481 24 88 24 272 0 360 -39 148 -136 299 -252 393 -70 57 -195
120 -280 143 -84 22 -245 27 -326 10z m91 -427 c0 -111 1 -121 18 -114 35 15
112 17 164 5 43 -11 63 -24 108 -69 64 -64 80 -105 80 -203 0 -125 -52 -223
-144 -270 -55 -28 -157 -35 -216 -14 -39 13 -46 13 -60 1 -9 -8 -33 -15 -53
-15 l-37 0 0 385 0 384 43 11 c23 6 47 13 52 15 6 2 18 4 28 4 15 1 17 -11 17
-120z"/>
<path d="M735 813 c-42 -11 -45 -20 -45 -163 0 -158 4 -166 79 -164 101 2 145
54 146 171 0 78 -18 116 -66 140 -31 15 -88 23 -114 16z"/>
</g>
</svg>
